<?xml version="1.0" standalone="no"?>
<!DOCTYPE svg PUBLIC "-//W3C//DTD SVG 20010904//EN"
 "http://www.w3.org/TR/2001/REC-SVG-20010904/DTD/svg10.dtd">
<svg version="1.0" xmlns="http://www.w3.org/2000/svg"
 width="800.000000pt" height="800.000000pt" viewBox="0 0 800.000000 800.000000"
 preserveAspectRatio="xMidYMid meet">
<metadata>
Created by potrace 1.14, written by Peter Selinger 2001-2017
</metadata>
<g transform="translate(0.000000,800.000000) scale(0.100000,-0.100000)"
fill="#000000" stroke="none">
<path d="M7480 7343 c-8 -3 -17 -9 -20 -12 -3 -3 -23 -21 -45 -40 -56 -47
-231 -206 -410 -370 -27 -26 -104 -96 -170 -156 -66 -60 -125 -114 -131 -120
-6 -5 -46 -41 -90 -80 -43 -38 -85 -77 -94 -85 -53 -50 -193 -172 -235 -205
-27 -22 -52 -42 -55 -45 -3 -3 -14 -11 -25 -17 -186 -115 -235 -137 -330 -148
-98 -10 -169 -36 -330 -118 -55 -28 -127 -65 -160 -81 -33 -17 -62 -33 -65
-36 -10 -10 -338 -170 -349 -170 -6 0 -11 -5 -11 -11 0 -5 -4 -8 -9 -4 -5 3
-16 -2 -24 -10 -9 -8 -20 -15 -25 -15 -5 0 -43 -17 -83 -37 -41 -20 -76 -37
-79 -38 -3 0 -10 -4 -16 -8 -7 -4 -54 -23 -105 -42 -159 -60 -233 -97 -260
-127 -22 -24 -24 -23 -63 15 -18 17 -64 59 -102 92 -37 33 -86 76 -109 96 -22
20 -55 49 -74 65 -19 16 -39 34 -45 39 -6 6 -40 35 -76 65 -35 30 -74 64 -85
75 -12 11 -48 43 -80 70 -32 28 -63 55 -69 60 -6 6 -43 37 -81 70 -39 32 -77
66 -86 75 -9 8 -29 26 -45 39 -73 61 -150 128 -170 146 -20 18 -84 74 -144
125 -28 24 -137 119 -154 135 -10 9 -102 89 -189 165 -16 14 -44 39 -61 55
-18 17 -54 48 -81 70 -26 22 -57 49 -69 61 -11 11 -61 56 -111 100 -49 43 -91
82 -93 86 -6 14 -68 47 -96 52 -24 4 -35 -1 -61 -29 -60 -63 -49 -117 37 -193
29 -26 62 -56 73 -67 12 -11 52 -47 90 -80 38 -33 79 -69 91 -80 19 -18 139
-125 188 -168 12 -10 37 -33 56 -50 19 -18 71 -63 115 -102 44 -38 102 -90
129 -115 56 -50 98 -89 137 -122 14 -13 61 -54 104 -93 42 -38 86 -77 97 -85
11 -8 34 -29 51 -45 18 -17 68 -62 112 -100 79 -69 132 -117 185 -165 15 -14
43 -38 61 -54 31 -27 83 -74 298 -265 100 -89 106 -96 118 -135 27 -86 -77
-161 -178 -129 -25 8 -81 49 -139 103 -15 14 -55 50 -90 80 -34 30 -75 66 -90
80 -15 14 -56 50 -90 80 -34 30 -76 68 -93 83 -17 15 -57 51 -90 80 -32 29
-69 61 -81 72 -85 76 -132 118 -196 175 -40 36 -78 70 -84 75 -6 6 -29 25 -51
44 -34 29 -165 145 -199 176 -55 50 -145 124 -163 134 -35 18 -80 13 -102 -11
-19 -20 -36 -74 -34 -105 0 -7 1 -21 2 -31 1 -19 63 -86 167 -181 32 -30 88
-82 125 -115 36 -34 100 -92 143 -131 43 -38 91 -81 106 -95 15 -14 54 -48 86
-76 33 -29 71 -63 85 -75 14 -13 59 -53 99 -89 41 -36 97 -85 125 -110 158
-140 200 -177 219 -193 218 -188 235 -210 231 -290 -6 -125 -148 -211 -254
-153 -21 11 -70 49 -108 82 -37 34 -133 117 -213 184 -80 67 -156 132 -170
143 -14 12 -65 55 -115 97 -123 102 -131 109 -186 158 -128 116 -204 172 -231
173 -88 4 -96 2 -114 -26 -26 -40 -29 -97 -6 -141 22 -43 53 -77 128 -141 27
-23 63 -54 79 -68 17 -15 77 -60 135 -102 186 -135 356 -285 344 -304 -2 -4 0
-10 5 -14 15 -9 -11 -61 -51 -103 -38 -40 -118 -115 -219 -204 -35 -31 -80
-71 -99 -88 -90 -82 -123 -97 -170 -76 -28 12 -183 126 -188 138 -2 4 -8 8
-13 8 -6 0 -24 13 -42 30 -18 16 -37 30 -44 30 -6 0 -13 4 -15 8 -1 4 -46 40
-98 79 -52 40 -99 76 -105 80 -73 58 -235 173 -243 173 -6 0 -12 3 -14 8 -4
10 -108 65 -108 56 0 -3 -6 -2 -13 3 -6 6 -25 14 -42 18 -16 5 -37 10 -45 12
-8 2 -37 6 -65 8 -27 2 -52 4 -55 6 -3 1 -9 0 -15 -1 -5 -1 -73 -4 -150 -6
-218 -5 -384 -16 -450 -29 -11 -2 -23 -4 -26 -4 -12 -2 -46 -36 -57 -58 -26
-48 -7 -120 38 -147 32 -18 96 -25 280 -31 63 -2 115 -4 115 -5 0 -1 29 -3 65
-4 72 -3 123 -24 141 -59 19 -34 16 -130 -5 -162 -22 -33 -73 -55 -120 -51
-20 1 -36 -1 -36 -6 0 -5 -8 -5 -17 0 -25 12 -368 5 -368 -7 0 -2 -10 -4 -23
-7 -40 -7 -118 -52 -135 -77 -33 -50 -31 -71 8 -105 30 -27 49 -36 75 -34 3 0
39 3 80 6 72 6 104 9 188 21 37 6 70 10 147 21 83 11 267 13 286 4 20 -11 46
-57 43 -77 -1 -7 -2 -20 -3 -28 -3 -37 -65 -73 -156 -91 -96 -19 -137 -24
-145 -19 -6 3 -10 2 -10 -2 0 -13 -151 -17 -315 -10 -62 3 -101 -7 -123 -33
-61 -72 -9 -176 107 -215 104 -34 207 -18 371 57 36 17 70 31 75 32 6 1 21 9
35 18 14 9 39 22 55 30 17 7 32 15 35 19 12 14 243 119 262 119 8 0 18 4 23 9
6 4 30 13 55 19 35 9 50 8 76 -4 51 -24 73 -84 46 -131 -13 -24 -170 -211
-257 -307 -6 -6 -28 -33 -50 -61 -22 -27 -43 -52 -46 -55 -10 -8 -202 -265
-239 -320 -19 -28 -39 -57 -45 -63 -5 -7 -39 -51 -75 -97 -57 -75 -164 -207
-227 -280 -12 -14 -30 -34 -40 -46 -42 -49 -129 -148 -138 -158 -54 -56 -62
-139 -15 -146 51 -8 88 19 200 146 25 28 73 82 107 120 34 38 70 78 80 90 10
12 50 57 89 100 39 43 111 123 160 178 48 54 102 105 120 112 82 34 174 -60
139 -143 -7 -17 -35 -55 -62 -85 -26 -29 -73 -82 -103 -117 -30 -35 -64 -73
-75 -86 -11 -12 -36 -39 -55 -61 -37 -42 -155 -176 -205 -233 -16 -19 -37 -42
-45 -51 -8 -9 -44 -50 -80 -91 -36 -41 -69 -79 -75 -85 -9 -9 -71 -81 -138
-158 -39 -45 -122 -140 -132 -150 -6 -6 -42 -47 -80 -91 -39 -44 -72 -82 -75
-85 -3 -3 -32 -36 -65 -75 -33 -38 -71 -82 -85 -96 -14 -14 -47 -52 -75 -85
-27 -32 -72 -82 -98 -112 -37 -41 -46 -58 -41 -75 17 -56 77 -84 114 -54 8 7
47 48 85 92 39 44 72 82 75 85 3 3 73 82 155 175 82 94 151 172 155 175 3 3
72 82 154 175 82 94 165 188 185 211 57 64 148 167 168 190 21 24 110 126 233
264 47 53 102 116 123 141 90 104 182 201 201 211 59 32 124 0 133 -64 5 -44
-14 -90 -60 -139 -18 -19 -61 -69 -97 -110 -36 -41 -69 -79 -75 -85 -5 -6 -35
-39 -65 -74 -30 -34 -62 -70 -70 -80 -8 -9 -40 -45 -70 -80 -30 -35 -66 -75
-80 -90 -14 -14 -47 -53 -75 -85 -27 -33 -57 -67 -65 -76 -24 -25 -78 -86
-195 -219 -100 -114 -153 -174 -180 -204 -6 -6 -138 -157 -295 -336 -156 -179
-289 -330 -295 -336 -5 -6 -35 -39 -65 -74 -30 -35 -70 -79 -88 -99 -45 -50
-111 -149 -118 -178 -11 -41 8 -86 38 -94 58 -15 116 33 303 251 49 58 104
121 121 140 92 104 275 313 389 445 70 83 131 152 134 155 3 3 31 34 61 70 30
36 57 67 60 70 3 3 61 70 130 150 68 80 134 156 146 170 71 81 396 465 488
575 59 72 122 142 140 157 28 25 92 55 107 50 4 0 18 -3 32 -6 101 -18 158
-123 117 -213 -13 -29 -141 -188 -180 -223 -3 -3 -39 -43 -80 -90 -67 -76 -99
-111 -165 -184 -11 -12 -49 -56 -85 -96 -36 -41 -72 -81 -80 -90 -8 -9 -44
-50 -80 -91 -35 -41 -67 -76 -70 -79 -6 -6 -163 -182 -205 -231 -26 -30 -178
-202 -350 -394 -176 -197 -187 -213 -178 -255 12 -58 122 -42 175 24 27 34
180 208 198 226 3 3 39 43 80 90 41 47 77 87 80 90 6 6 134 151 176 199 16 18
38 43 49 55 57 63 166 186 196 220 19 22 45 52 59 66 14 14 52 57 85 95 33 38
69 78 80 91 11 12 49 55 85 95 36 40 72 80 80 89 8 9 33 36 55 61 22 25 72 81
110 124 108 121 108 121 145 144 46 28 94 27 144 -3 100 -59 94 -156 -20 -281
-20 -22 -64 -71 -97 -109 -34 -39 -73 -81 -86 -95 -13 -15 -53 -59 -90 -100
-36 -41 -73 -82 -81 -90 -58 -60 -174 -201 -187 -225 -38 -72 -4 -146 66 -146
50 0 85 24 166 115 115 128 150 167 201 225 27 31 80 90 117 132 37 42 76 85
85 96 22 25 160 177 192 212 14 15 54 60 90 100 36 41 72 81 80 90 8 8 26 31
40 50 13 19 27 37 30 40 3 3 22 28 41 55 54 80 150 175 201 201 104 53 200 28
193 -49 -5 -45 -27 -96 -55 -126 -69 -71 -143 -196 -156 -263 -12 -58 -10
-142 4 -183 16 -47 60 -138 71 -145 4 -3 14 -16 23 -29 41 -59 241 -266 423
-436 60 -56 75 -65 107 -65 24 0 45 7 57 19 11 11 22 17 25 13 3 -3 7 3 7 14
1 10 3 29 4 42 3 34 -44 98 -195 262 -76 83 -104 114 -185 211 -50 58 -97 115
-105 126 -55 71 -66 138 -33 195 20 35 103 103 128 106 51 6 74 3 105 -12 35
-17 59 -44 195 -222 172 -223 216 -275 306 -357 92 -83 128 -94 169 -51 22 25
26 38 25 79 -3 72 -18 96 -169 259 -50 54 -100 109 -111 121 -11 12 -59 64
-107 116 -113 123 -138 160 -144 219 -8 90 37 150 113 150 55 0 170 -57 211
-105 60 -70 54 -61 238 -345 27 -41 48 -76 46 -78 -1 -1 3 -9 11 -17 8 -7 35
-47 60 -88 69 -109 119 -125 158 -48 15 28 15 39 4 89 -8 31 -32 91 -53 132
-131 252 -257 401 -467 555 -109 80 -188 157 -216 212 -29 56 -30 132 -4 183
32 62 122 133 184 145 9 2 16 4 16 6 0 1 27 3 60 4 94 4 226 -52 458 -194 37
-22 71 -41 76 -41 5 0 11 -4 13 -8 3 -7 30 -23 193 -114 108 -61 195 -98 230
-98 19 0 35 5 35 11 0 5 4 8 8 5 13 -8 67 48 85 87 42 89 18 154 -77 206 -69
39 -196 101 -199 99 -2 -2 -11 3 -20 11 -9 7 -43 26 -74 43 -32 16 -89 47
-128 68 -38 21 -101 54 -140 75 -120 63 -162 117 -166 210 -2 33 3 57 12 65 3
3 15 22 27 42 32 52 104 86 173 81 29 -2 55 -7 58 -11 4 -4 11 -8 17 -9 7 -1
38 -15 70 -30 33 -15 62 -26 67 -25 4 1 7 -3 7 -8 0 -5 3 -9 8 -8 4 1 41 -15
84 -35 42 -20 81 -37 87 -37 6 0 11 -4 11 -10 0 -5 3 -9 8 -8 4 0 25 -7 47
-17 22 -10 43 -18 48 -17 4 1 7 -3 7 -8 0 -6 4 -10 10 -10 10 0 65 -24 238
-106 63 -30 115 -54 117 -54 4 0 85 -37 255 -117 41 -19 95 -44 120 -55 25
-12 72 -34 104 -49 33 -16 65 -29 73 -29 7 0 13 -4 13 -10 0 -5 4 -10 9 -10 5
0 49 -19 98 -42 48 -23 90 -43 93 -43 3 -1 18 -7 34 -14 109 -45 253 34 286
158 13 50 3 86 -33 117 -21 18 -136 77 -262 134 -33 15 -100 47 -150 70 -49
23 -119 56 -155 72 -36 16 -101 47 -145 67 -255 120 -302 141 -313 141 -7 0
-12 5 -12 11 0 5 -4 7 -10 4 -5 -3 -10 -1 -10 4 0 6 -3 10 -7 9 -5 -2 -33 9
-63 24 -30 14 -91 43 -135 63 -44 21 -123 58 -175 82 -52 25 -117 56 -145 69
-53 24 -104 72 -122 114 -29 70 40 177 153 234 49 25 176 36 189 17 3 -6 14
-11 23 -11 9 0 37 -10 62 -22 25 -12 47 -22 50 -23 3 -1 55 -25 115 -54 61
-29 137 -65 170 -81 33 -16 105 -50 160 -76 55 -27 102 -49 105 -50 3 0 31
-13 63 -27 32 -15 62 -27 67 -27 6 0 10 -4 10 -10 0 -5 4 -10 10 -10 5 0 47
-18 92 -40 46 -22 89 -40 95 -40 7 0 13 -4 13 -10 0 -5 3 -9 8 -8 4 1 36 -12
72 -29 36 -17 109 -52 163 -77 53 -25 141 -67 195 -92 53 -25 124 -59 157 -74
33 -15 89 -42 124 -59 36 -17 70 -31 78 -31 7 0 13 -4 13 -10 0 -5 4 -10 10
-10 5 0 66 -27 136 -60 69 -33 132 -60 140 -60 7 0 16 -4 19 -10 8 -13 68 -13
98 1 25 11 55 55 63 92 15 72 -30 129 -144 183 -131 62 -187 87 -188 83 -1 -2
-12 5 -24 16 -12 11 -24 19 -26 18 -4 -3 -76 29 -209 92 -118 56 -185 85 -195
85 -6 0 -10 5 -10 10 0 6 -6 10 -13 10 -7 0 -39 13 -72 29 -33 16 -91 44 -130
61 -38 18 -88 41 -109 51 -22 10 -46 19 -53 19 -7 0 -13 5 -13 10 0 6 -5 10
-12 10 -6 0 -41 14 -77 31 -102 49 -195 92 -201 94 -3 0 -27 12 -55 24 -27 13
-88 41 -135 63 -47 22 -98 46 -114 54 -16 8 -35 14 -43 14 -7 0 -13 5 -13 10
0 6 -6 10 -14 10 -8 0 -31 9 -53 20 -21 10 -81 40 -133 65 -52 26 -102 52
-110 60 -8 7 -25 16 -37 19 -13 4 -23 12 -23 17 0 5 -5 9 -10 9 -30 0 -203
131 -235 178 -53 78 -17 180 85 243 30 18 100 46 132 53 13 3 34 8 48 11 14 3
34 7 45 9 11 2 47 11 80 20 33 10 61 18 63 17 4 -2 117 63 152 88 68 49 157
153 193 225 47 93 55 130 60 261 3 74 10 125 22 155 20 49 72 133 103 165 48
50 287 279 377 360 54 50 108 99 120 110 39 37 238 219 420 384 263 239 316
291 331 328 19 45 18 54 -15 91 -29 31 -62 39 -101 25z"/>
</g>
</svg>
